# xmcd CD database file
#
# Track frame offsets:
#	150
#	13277
#	24900
#	37802
#	51064
#	61860
#	73172
#	85462
#	97162
#	112285
#	127522
#	141495
#	153657
#	166765
#	178852
#	189605
#	205234
#	217630
#	227202
#	237934
#	251557
#
# Disc length: 3505 seconds
#
# Revision: 0
# Processed by: cddbd v1.5.2PL0 Copyright (c) Steve Scherf et al.
# Submitted via: CDex 2.09
#
DISCID=280daf15
DTITLE=Slim Harpo - The Complete Excello Recordings Disk 3 - Harpo The Scratcher
DYEAR=1997
DGENRE=Blues
TTITLE0=Baby Scratch My Back
TTITLE1=Baby Scratch My Back (alt take)
TTITLE2=I Don't Want No One (To Take Me Away From You)
TTITLE3=I Don't Want No One (To Take Me Away From You) (alt take)
TTITLE4=I'm Gonna Miss You (Like The Devil)
TTITLE5=Shake Your Hips
TTITLE6=I Gotta Stop Lovin' You
TTITLE7=I'm Your Bread Maker, Baby
TTITLE8=Stop Working Blues
TTITLE9=Baby You Got What I Want
TTITLE10=Your Love For Me Is Gone
TTITLE11=Rainin' In My Heart
TTITLE12=Tip On In (Part 1)
TTITLE13=Tip On In (Part 2)
TTITLE14=My Baby She's Got It
TTITLE15=I'm So Sorry
TTITLE16=Mailbox Blues
TTITLE17=Te-Ni-Nee-Ni-Nu
TTITLE18=I'm Gonna Keep What I've Got
TTITLE19=I've Got To Be With You Tonight
TTITLE20=Mohair Sam
EXTD=YEAR: 1997
EXTT0=
EXTT1=
EXTT2=
EXTT3=
EXTT4=
EXTT5=
EXTT6=
EXTT7=
EXTT8=
EXTT9=
EXTT10=
EXTT11=
EXTT12=
EXTT13=
EXTT14=
EXTT15=
EXTT16=
EXTT17=
EXTT18=
EXTT19=
EXTT20=
PLAYORDER=
